<svg width="800" height="800" viewBox="0 0 800 800" fill="none" xmlns="http://www.w3.org/2000/svg">
<path d="M213.7 369.1H540.6V578.05H213.7V369.1Z" fill="#DADCDC"/>
<path d="M559.4 668.5C559.4 670.743 558.957 672.964 558.097 675.036C557.237 677.108 555.977 678.99 554.389 680.574C552.8 682.158 550.915 683.413 548.84 684.267C546.766 685.12 544.543 685.557 542.3 685.55H174.35C172.113 685.55 169.899 685.109 167.833 684.251C165.767 683.394 163.891 682.137 162.312 680.553C160.732 678.969 159.481 677.089 158.63 675.021C157.778 672.953 157.343 670.737 157.35 668.5V110.6C157.343 108.363 157.778 106.147 158.63 104.079C159.481 102.011 160.732 100.131 162.312 98.5469C163.891 96.963 165.767 95.7063 167.833 94.8489C169.899 93.9914 172.113 93.55 174.35 93.55H542.3C551.75 93.55 559.4 101.2 559.4 110.6V668.5Z" fill="#97D8E1"/>
<path d="M87.75 657.1H718.4V716.85H87.75V657.1Z" fill="#5A7784"/>
<path d="M206.95 139.85H509.75V333.35H206.95V139.85Z" fill="#DADCDC"/>
<path d="M340.75 305.2L324.5 333.35H389.5L373.15 305.2H340.75ZM261.55 211.55L244 224.95L227.75 203.7L245.3 190.3L261.55 211.55ZM475.5 190.65L493 204L476.75 225.25L459.25 211.9L475.5 190.65ZM417.3 170.05L438.3 177.05L429.9 202.4L408.9 195.4L417.3 170.05ZM344.7 165.6H366.85V192.35H344.7V165.6ZM308.7 195.2L287.7 202.2L279.2 176.85L300.25 169.85L308.7 195.2Z" fill="#5A7784"/>
<path d="M362.3 314.7L347.45 305.55L425.65 188.95L431.4 192.5L362.3 314.7Z" fill="#CA5349"/>
<path d="M640.95 270.3C638.861 270.315 636.791 269.896 634.871 269.07C632.952 268.244 631.225 267.028 629.8 265.5L547.25 178.8C544.458 175.82 542.955 171.858 543.068 167.777C543.18 163.695 544.899 159.822 547.85 157C549.314 155.614 551.037 154.531 552.92 153.811C554.803 153.092 556.809 152.75 558.824 152.806C560.839 152.861 562.824 153.313 564.664 154.136C566.504 154.959 568.165 156.136 569.55 157.6L652.1 244.35C654.155 246.535 655.527 249.273 656.048 252.227C656.569 255.182 656.215 258.223 655.031 260.98C653.847 263.736 651.883 266.086 649.382 267.742C646.88 269.397 643.95 270.287 640.95 270.3Z" fill="#F9A237"/>
<path d="M657.95 621.9C650.3 621.9 642.05 620.8 633.05 618.55C575 604.45 582.25 511.2 588.5 469.6H558.35V438.8H625.7L621.85 457.35C613.55 496.75 607.2 580.65 640.3 588.7C656.8 592.7 668.65 591.75 675.65 585.65C687.3 575.7 691.3 549.4 687.55 507.5C685.25 481.75 676.05 470.8 664.35 456.9C646.45 435.5 626.1 411.3 627 339.45L657.7 339.85C656.95 400.3 672 418.15 687.9 437.1C700.6 452.25 714.95 469.35 718.1 504.75C722.9 558.6 715.8 591.7 695.65 609.05C685.8 617.6 673.15 621.9 657.95 621.9Z" fill="#5A7784"/>
<path d="M607.5 255.05H674.4V336.1H607.5V255.05Z" fill="#F9A237"/>
<path d="M479.988 521.771C464.431 533.752 442.339 550.913 405.689 550.913C390.667 550.913 373.133 548.041 352.692 540.738C320.542 529.344 295.38 525.312 275.579 525.312C251.371 525.312 235.208 531.313 224.186 537.175L215 552.214C227.906 546.095 247.626 537.515 277.788 537.515C297.799 537.515 322.391 541.277 352.657 552.085C380.865 562.143 401.957 566 418.549 566C446.083 566 461.222 555.45 475.837 545.204L480 521.76" fill="url(#paint0_linear_4_62)"/>
<path d="M348.157 525.441C406.957 549.952 443.188 525.722 459.78 508.678C449.734 446.784 403.678 400 348.343 400C287.974 400 238.604 455.728 235.104 526.015C251.777 515.219 288.636 500.636 348.157 525.441Z" fill="url(#paint1_radial_4_62)"/>
<path d="M233.395 529.028C250.836 518.208 286.125 505.935 348.506 530.657C410.131 555.134 451.699 527.973 469.128 510.905L466.756 533.248C465.977 533.951 424.026 572.084 348.587 542.016C282.311 515.606 243.057 531.794 224.395 542.157L233.395 529.028Z" fill="url(#paint2_linear_4_62)"/>
<path d="M200.18 664.56C200.3 665.24 200.38 665.72 200.42 666C200.5 666.24 200.54 666.58 200.54 667.02C200.54 668.34 200.24 669.58 199.64 670.74C199.08 671.86 198.3 672.66 197.3 673.14C196.5 672.06 195.52 671.14 194.36 670.38C193.2 669.58 191.92 668.94 190.52 668.46C189.16 667.94 187.74 667.56 186.26 667.32C184.78 667.08 183.34 666.96 181.94 666.96C180.54 666.96 179.22 667.08 177.98 667.32C176.78 667.52 175.7 667.82 174.74 668.22C173.82 668.58 173.08 669.04 172.52 669.6C172 670.16 171.74 670.8 171.74 671.52C171.86 672.4 172.4 673.3 173.36 674.22C174.32 675.1 175.5 675.98 176.9 676.86C178.3 677.7 179.84 678.54 181.52 679.38C183.24 680.22 184.92 681.02 186.56 681.78C188.6 682.74 190.36 683.64 191.84 684.48C193.32 685.28 194.54 686.18 195.5 687.18C196.46 688.14 197.18 689.24 197.66 690.48C198.14 691.72 198.38 693.22 198.38 694.98C198.38 697.02 198.04 698.94 197.36 700.74C196.68 702.5 195.68 704.04 194.36 705.36C193.08 706.68 191.52 707.7 189.68 708.42C187.84 709.18 185.78 709.56 183.5 709.56C181.26 709.56 178.84 709.22 176.24 708.54C173.64 707.86 171.2 706.92 168.92 705.72C166.68 704.56 164.8 703.22 163.28 701.7C161.8 700.14 161.06 698.5 161.06 696.78C161.06 695.98 161.28 694.96 161.72 693.72C162.2 692.48 163.04 691.18 164.24 689.82C164.36 691.02 165 692.44 166.16 694.08C167.36 695.72 169.14 697.24 171.5 698.64C173.7 699.92 175.96 700.86 178.28 701.46C180.64 702.02 182.84 702.3 184.88 702.3C187.12 702.3 188.94 702.02 190.34 701.46C191.74 700.9 192.84 700.24 193.64 699.48C194.44 698.68 195 697.88 195.32 697.08C195.64 696.28 195.82 695.64 195.86 695.16C195.82 694.36 195.44 693.6 194.72 692.88C194.04 692.12 193.1 691.4 191.9 690.72C190.74 690 189.38 689.28 187.82 688.56C186.26 687.84 184.64 687.12 182.96 686.4C180.44 685.28 178.26 684.24 176.42 683.28C174.62 682.28 173.12 681.28 171.92 680.28C170.76 679.24 169.9 678.16 169.34 677.04C168.82 675.92 168.56 674.64 168.56 673.2C168.56 670.96 169.24 668.84 170.6 666.84C171.96 664.84 173.92 663.32 176.48 662.28C177.76 661.72 179.12 661.32 180.56 661.08C182.04 660.84 183.48 660.72 184.88 660.72C187.52 660.72 190.1 661.08 192.62 661.8C195.14 662.52 197.66 663.44 200.18 664.56ZM230.849 661.32C231.609 661.64 232.389 662.06 233.189 662.58C233.989 663.06 234.729 663.56 235.409 664.08C236.089 664.6 236.649 665.12 237.089 665.64C237.569 666.12 237.829 666.52 237.869 666.84C237.189 666.68 236.509 666.58 235.829 666.54C235.149 666.46 234.529 666.42 233.969 666.42C232.169 666.42 230.369 666.86 228.569 667.74C226.809 668.62 225.129 669.82 223.529 671.34C221.929 672.86 220.449 674.64 219.089 676.68C217.729 678.72 216.549 680.9 215.549 683.22C214.589 685.54 213.829 687.94 213.269 690.42C212.709 692.9 212.429 695.34 212.429 697.74C212.429 700.86 212.949 703.18 213.989 704.7C215.029 706.22 216.549 706.98 218.549 706.98C219.509 706.98 220.549 706.78 221.669 706.38C222.789 706.02 223.929 705.5 225.089 704.82C226.249 704.14 227.389 703.32 228.509 702.36C229.629 701.4 230.669 700.34 231.629 699.18C233.029 697.5 234.289 695.6 235.409 693.48C236.529 691.32 237.469 689.04 238.229 686.64C239.029 684.24 239.629 681.78 240.029 679.26C240.469 676.7 240.689 674.2 240.689 671.76C240.689 670.8 240.669 670 240.629 669.36C240.589 668.68 240.529 668.12 240.449 667.68C240.409 667.2 240.369 666.82 240.329 666.54C240.289 666.26 240.249 666.02 240.209 665.82C240.689 666.06 241.209 666.36 241.769 666.72C242.369 667.04 242.909 667.54 243.389 668.22C243.909 668.86 244.329 669.72 244.649 670.8C245.009 671.88 245.189 673.28 245.189 675C245.189 677.8 244.849 680.56 244.169 683.28C243.529 685.96 242.609 688.52 241.409 690.96C240.249 693.4 238.869 695.68 237.269 697.8C235.669 699.92 233.949 701.78 232.109 703.38C229.709 705.5 227.149 707.14 224.429 708.3C221.709 709.46 219.089 710.04 216.569 710.04C212.889 710.04 210.069 708.86 208.109 706.5C206.189 704.18 205.229 700.74 205.229 696.18C205.229 693.74 205.489 691.16 206.009 688.44C206.569 685.72 207.329 683.04 208.289 680.4C209.289 677.76 210.469 675.26 211.829 672.9C213.189 670.5 214.669 668.4 216.269 666.6C217.909 664.76 219.649 663.3 221.489 662.22C223.369 661.14 225.289 660.6 227.249 660.6C227.889 660.6 228.489 660.66 229.049 660.78C229.609 660.86 230.209 661.04 230.849 661.32ZM268.868 701.58C269.868 703.3 270.368 704.96 270.368 706.56C270.368 706.92 270.328 707.24 270.248 707.52C270.208 707.84 270.148 708.16 270.068 708.48C269.388 708.4 268.668 708.34 267.908 708.3C267.188 708.26 266.428 708.24 265.628 708.24C264.668 708.24 263.688 708.26 262.688 708.3C261.728 708.38 260.648 708.48 259.448 708.6C258.248 708.72 256.908 708.88 255.428 709.08C253.948 709.28 252.228 709.54 250.268 709.86C249.348 709.54 248.428 708.9 247.508 707.94C246.588 707.02 245.728 705.9 244.928 704.58C245.328 703.7 245.828 702.62 246.428 701.34C247.028 700.02 247.728 698.44 248.528 696.6C249.328 694.72 250.208 692.54 251.168 690.06C252.168 687.54 253.228 684.64 254.348 681.36C255.068 679.2 255.688 677.3 256.208 675.66C256.728 674.02 257.188 672.44 257.588 670.92C258.028 669.36 258.448 667.74 258.848 666.06C259.248 664.38 259.688 662.44 260.168 660.24C261.768 660.56 263.148 661.16 264.308 662.04C265.508 662.88 266.648 664.1 267.728 665.7C267.408 666.22 266.988 667.06 266.468 668.22C265.948 669.38 265.328 670.8 264.608 672.48C263.928 674.12 263.168 676 262.328 678.12C261.488 680.2 260.608 682.44 259.688 684.84C258.808 687.2 257.948 689.42 257.108 691.5C256.268 693.58 255.508 695.46 254.828 697.14C254.188 698.82 253.668 700.26 253.268 701.46C252.868 702.66 252.668 703.56 252.668 704.16C253.308 704.12 253.888 704.08 254.408 704.04C254.928 704 255.468 703.94 256.028 703.86C256.588 703.74 257.188 703.62 257.828 703.5C258.508 703.34 259.308 703.14 260.228 702.9C261.028 702.7 261.768 702.54 262.448 702.42C263.128 702.26 263.788 702.14 264.428 702.06C265.108 701.94 265.788 701.86 266.468 701.82C267.188 701.74 267.988 701.66 268.868 701.58Z" fill="#F9A237"/>
<path d="M336.4 671.94C336.4 674.42 335.72 676.64 334.36 678.6C333 680.52 331.14 682.12 328.78 683.4C330.3 684.44 331.5 685.72 332.38 687.24C333.3 688.72 333.76 690.36 333.76 692.16C333.76 694.32 333.1 696.46 331.78 698.58C330.5 700.66 328.78 702.52 326.62 704.16C324.46 705.76 322 707.06 319.24 708.06C316.48 709.06 313.66 709.56 310.78 709.56C307.66 709.56 304.92 708.96 302.56 707.76C300.24 706.6 298.42 704.94 297.1 702.78C297.5 701.58 298.02 700.1 298.66 698.34C299.34 696.54 300.08 694.66 300.88 692.7C301.68 690.7 302.48 688.72 303.28 686.76C304.12 684.8 304.9 683.04 305.62 681.48C307.14 678.08 308.5 675.26 309.7 673.02C310.9 670.78 312 669 313 667.68C310.8 668.36 308.8 669.14 307 670.02C305.2 670.86 303.88 671.68 303.04 672.48C302.68 672.24 302.3 671.88 301.9 671.4C301.54 670.92 301.18 670.4 300.82 669.84C300.5 669.24 300.22 668.64 299.98 668.04C299.78 667.44 299.66 666.9 299.62 666.42C300.66 665.7 302 665.02 303.64 664.38C305.32 663.7 307.14 663.12 309.1 662.64C311.06 662.16 313.06 661.78 315.1 661.5C317.18 661.22 319.16 661.08 321.04 661.08C325.84 661.08 329.6 662.04 332.32 663.96C335.04 665.88 336.4 668.54 336.4 671.94ZM313.54 686.28C312.78 685.92 312.08 685.38 311.44 684.66C310.52 686.7 309.64 688.7 308.8 690.66C308 692.62 307.28 694.44 306.64 696.12C306 697.8 305.48 699.26 305.08 700.5C304.68 701.74 304.46 702.64 304.42 703.2C304.98 703.52 305.64 703.76 306.4 703.92C307.2 704.08 308.18 704.16 309.34 704.16C312.06 704.16 314.66 703.78 317.14 703.02C319.62 702.26 321.8 701.24 323.68 699.96C325.56 698.64 327.06 697.14 328.18 695.46C329.3 693.78 329.86 692.02 329.86 690.18C329.86 687.54 328.72 685.64 326.44 684.48C323.32 685.76 319.8 686.4 315.88 686.4C315.32 686.4 314.88 686.4 314.56 686.4C314.28 686.4 313.94 686.36 313.54 686.28ZM325.18 665.46C324.34 665.46 323.44 665.52 322.48 665.64C321.56 665.72 320.58 665.86 319.54 666.06C319.7 666.22 319.82 666.4 319.9 666.6C320.02 666.76 320.12 666.94 320.2 667.14C319.84 667.62 319.4 668.32 318.88 669.24C318.36 670.16 317.78 671.24 317.14 672.48C316.5 673.68 315.82 675.02 315.1 676.5C314.42 677.98 313.72 679.5 313 681.06C313.68 680.9 314.5 680.78 315.46 680.7C316.46 680.58 317.44 680.52 318.4 680.52C318.92 680.52 319.42 680.54 319.9 680.58C320.42 680.62 320.92 680.68 321.4 680.76C323.32 680.44 325.04 679.98 326.56 679.38C328.12 678.74 329.46 678.02 330.58 677.22C331.7 676.38 332.56 675.46 333.16 674.46C333.76 673.46 334.06 672.4 334.06 671.28C334.06 669.36 333.3 667.92 331.78 666.96C330.26 665.96 328.06 665.46 325.18 665.46ZM365.845 661.32C366.605 661.64 367.385 662.06 368.185 662.58C368.985 663.06 369.725 663.56 370.405 664.08C371.085 664.6 371.645 665.12 372.085 665.64C372.565 666.12 372.825 666.52 372.865 666.84C372.185 666.68 371.505 666.58 370.825 666.54C370.145 666.46 369.525 666.42 368.965 666.42C367.165 666.42 365.365 666.86 363.565 667.74C361.805 668.62 360.125 669.82 358.525 671.34C356.925 672.86 355.445 674.64 354.085 676.68C352.725 678.72 351.545 680.9 350.545 683.22C349.585 685.54 348.825 687.94 348.265 690.42C347.705 692.9 347.425 695.34 347.425 697.74C347.425 700.86 347.945 703.18 348.985 704.7C350.025 706.22 351.545 706.98 353.545 706.98C354.505 706.98 355.545 706.78 356.665 706.38C357.785 706.02 358.925 705.5 360.085 704.82C361.245 704.14 362.385 703.32 363.505 702.36C364.625 701.4 365.665 700.34 366.625 699.18C368.025 697.5 369.285 695.6 370.405 693.48C371.525 691.32 372.465 689.04 373.225 686.64C374.025 684.24 374.625 681.78 375.025 679.26C375.465 676.7 375.685 674.2 375.685 671.76C375.685 670.8 375.665 670 375.625 669.36C375.585 668.68 375.525 668.12 375.445 667.68C375.405 667.2 375.365 666.82 375.325 666.54C375.285 666.26 375.245 666.02 375.205 665.82C375.685 666.06 376.205 666.36 376.765 666.72C377.365 667.04 377.905 667.54 378.385 668.22C378.905 668.86 379.325 669.72 379.645 670.8C380.005 671.88 380.185 673.28 380.185 675C380.185 677.8 379.845 680.56 379.165 683.28C378.525 685.96 377.605 688.52 376.405 690.96C375.245 693.4 373.865 695.68 372.265 697.8C370.665 699.92 368.945 701.78 367.105 703.38C364.705 705.5 362.145 707.14 359.425 708.3C356.705 709.46 354.085 710.04 351.565 710.04C347.885 710.04 345.065 708.86 343.105 706.5C341.185 704.18 340.225 700.74 340.225 696.18C340.225 693.74 340.485 691.16 341.005 688.44C341.565 685.72 342.325 683.04 343.285 680.4C344.285 677.76 345.465 675.26 346.825 672.9C348.185 670.5 349.665 668.4 351.265 666.6C352.905 664.76 354.645 663.3 356.485 662.22C358.365 661.14 360.285 660.6 362.245 660.6C362.885 660.6 363.485 660.66 364.045 660.78C364.605 660.86 365.205 661.04 365.845 661.32ZM406.324 709.44C406.244 709.48 406.164 709.5 406.084 709.5C406.004 709.5 405.844 709.5 405.604 709.5C405.044 709.5 404.384 709.4 403.624 709.2C402.904 709.04 402.184 708.82 401.464 708.54C400.784 708.3 400.184 708.02 399.664 707.7C399.184 707.38 398.884 707.1 398.764 706.86C398.724 706.3 398.704 705.72 398.704 705.12C398.704 704.52 398.704 703.94 398.704 703.38C398.704 698.9 399.024 694.22 399.664 689.34C400.344 684.46 401.444 679.18 402.964 673.5C403.124 672.94 403.284 672.24 403.444 671.4C403.644 670.52 403.844 669.58 404.044 668.58C403.084 669.34 401.944 670.56 400.624 672.24C399.304 673.88 397.904 675.84 396.424 678.12C394.984 680.36 393.524 682.84 392.044 685.56C390.604 688.24 389.284 690.98 388.084 693.78C386.884 696.54 385.844 699.28 384.964 702C384.124 704.72 383.604 707.24 383.404 709.56C381.484 709 380.144 708.44 379.384 707.88C378.664 707.32 378.304 706.64 378.304 705.84C378.304 705.12 378.524 704.1 378.964 702.78C379.404 701.46 380.024 699.9 380.824 698.1C381.624 696.3 382.604 694.3 383.764 692.1C384.924 689.86 386.204 687.46 387.604 684.9C389.204 681.98 390.764 679.24 392.284 676.68C393.844 674.12 395.364 671.8 396.844 669.72C398.324 667.64 399.764 665.84 401.164 664.32C402.604 662.8 404.024 661.64 405.424 660.84C405.984 660.84 406.724 660.98 407.644 661.26C408.604 661.54 409.524 661.88 410.404 662.28C411.324 662.68 412.124 663.1 412.804 663.54C413.524 663.94 413.924 664.28 414.004 664.56C413.444 665.68 412.784 667.36 412.024 669.6C411.264 671.84 410.484 674.38 409.684 677.22C408.924 680.06 408.184 683.08 407.464 686.28C406.784 689.44 406.244 692.48 405.844 695.4C406.764 693.2 407.824 690.92 409.024 688.56C410.264 686.16 411.564 683.8 412.924 681.48C414.284 679.12 415.664 676.84 417.064 674.64C418.504 672.44 419.904 670.44 421.264 668.64C422.624 666.8 423.884 665.2 425.044 663.84C426.244 662.48 427.304 661.48 428.224 660.84C428.784 660.84 429.524 660.98 430.444 661.26C431.404 661.54 432.324 661.88 433.204 662.28C434.124 662.68 434.924 663.1 435.604 663.54C436.324 663.94 436.724 664.28 436.804 664.56C435.524 666.84 434.404 669.62 433.444 672.9C432.484 676.18 431.664 679.62 430.984 683.22C430.344 686.82 429.844 690.4 429.484 693.96C429.164 697.48 429.004 700.64 429.004 703.44C429.004 704.36 429.004 705.32 429.004 706.32C429.004 707.32 429.044 708.36 429.124 709.44C428.564 709.44 427.884 709.36 427.084 709.2C426.324 709.08 425.564 708.9 424.804 708.66C424.084 708.42 423.424 708.14 422.824 707.82C422.224 707.54 421.804 707.22 421.564 706.86C421.524 706.3 421.504 705.72 421.504 705.12C421.504 704.52 421.504 703.94 421.504 703.38C421.504 698.9 421.824 694.22 422.464 689.34C423.144 684.46 424.244 679.18 425.764 673.5C425.924 672.94 426.104 672.18 426.304 671.22C426.504 670.26 426.704 669.26 426.904 668.22C425.784 668.78 424.504 669.86 423.064 671.46C421.664 673.02 420.224 674.94 418.744 677.22C417.304 679.46 415.864 681.96 414.424 684.72C413.024 687.48 411.744 690.3 410.584 693.18C409.464 696.02 408.504 698.86 407.704 701.7C406.944 704.5 406.484 707.08 406.324 709.44ZM479.427 671.94C479.427 674.42 478.747 676.64 477.387 678.6C476.027 680.52 474.167 682.12 471.807 683.4C473.327 684.44 474.527 685.72 475.407 687.24C476.327 688.72 476.787 690.36 476.787 692.16C476.787 694.32 476.127 696.46 474.807 698.58C473.527 700.66 471.807 702.52 469.647 704.16C467.487 705.76 465.027 707.06 462.267 708.06C459.507 709.06 456.687 709.56 453.807 709.56C450.687 709.56 447.947 708.96 445.587 707.76C443.267 706.6 441.447 704.94 440.127 702.78C440.527 701.58 441.047 700.1 441.687 698.34C442.367 696.54 443.107 694.66 443.907 692.7C444.707 690.7 445.507 688.72 446.307 686.76C447.147 684.8 447.927 683.04 448.647 681.48C450.167 678.08 451.527 675.26 452.727 673.02C453.927 670.78 455.027 669 456.027 667.68C453.827 668.36 451.827 669.14 450.027 670.02C448.227 670.86 446.907 671.68 446.067 672.48C445.707 672.24 445.327 671.88 444.927 671.4C444.567 670.92 444.207 670.4 443.847 669.84C443.527 669.24 443.247 668.64 443.007 668.04C442.807 667.44 442.687 666.9 442.647 666.42C443.687 665.7 445.027 665.02 446.667 664.38C448.347 663.7 450.167 663.12 452.127 662.64C454.087 662.16 456.087 661.78 458.127 661.5C460.207 661.22 462.187 661.08 464.067 661.08C468.867 661.08 472.627 662.04 475.347 663.96C478.067 665.88 479.427 668.54 479.427 671.94ZM456.567 686.28C455.807 685.92 455.107 685.38 454.467 684.66C453.547 686.7 452.667 688.7 451.827 690.66C451.027 692.62 450.307 694.44 449.667 696.12C449.027 697.8 448.507 699.26 448.107 700.5C447.707 701.74 447.487 702.64 447.447 703.2C448.007 703.52 448.667 703.76 449.427 703.92C450.227 704.08 451.207 704.16 452.367 704.16C455.087 704.16 457.687 703.78 460.167 703.02C462.647 702.26 464.827 701.24 466.707 699.96C468.587 698.64 470.087 697.14 471.207 695.46C472.327 693.78 472.887 692.02 472.887 690.18C472.887 687.54 471.747 685.64 469.467 684.48C466.347 685.76 462.827 686.4 458.907 686.4C458.347 686.4 457.907 686.4 457.587 686.4C457.307 686.4 456.967 686.36 456.567 686.28ZM468.207 665.46C467.367 665.46 466.467 665.52 465.507 665.64C464.587 665.72 463.607 665.86 462.567 666.06C462.727 666.22 462.847 666.4 462.927 666.6C463.047 666.76 463.147 666.94 463.227 667.14C462.867 667.62 462.427 668.32 461.907 669.24C461.387 670.16 460.807 671.24 460.167 672.48C459.527 673.68 458.847 675.02 458.127 676.5C457.447 677.98 456.747 679.5 456.027 681.06C456.707 680.9 457.527 680.78 458.487 680.7C459.487 680.58 460.467 680.52 461.427 680.52C461.947 680.52 462.447 680.54 462.927 680.58C463.447 680.62 463.947 680.68 464.427 680.76C466.347 680.44 468.067 679.98 469.587 679.38C471.147 678.74 472.487 678.02 473.607 677.22C474.727 676.38 475.587 675.46 476.187 674.46C476.787 673.46 477.087 672.4 477.087 671.28C477.087 669.36 476.327 667.92 474.807 666.96C473.287 665.96 471.087 665.46 468.207 665.46ZM483.912 709.56C481.992 709 480.652 708.44 479.892 707.88C479.172 707.32 478.812 706.62 478.812 705.78C478.812 705.14 478.992 704.24 479.352 703.08C479.712 701.92 480.232 700.56 480.912 699C481.632 697.4 482.472 695.64 483.432 693.72C484.432 691.8 485.552 689.74 486.792 687.54C485.752 687.5 484.812 687.48 483.972 687.48C483.172 687.44 482.512 687.42 481.992 687.42C482.232 686.82 482.912 686.3 484.032 685.86C485.152 685.42 486.632 685.04 488.472 684.72C490.032 682.12 491.692 679.64 493.452 677.28C495.252 674.92 497.052 672.76 498.852 670.8C500.652 668.8 502.452 667.06 504.252 665.58C506.052 664.06 507.772 662.86 509.412 661.98C509.452 661.7 509.472 661.46 509.472 661.26C509.512 661.06 509.532 660.92 509.532 660.84C510.092 660.84 510.832 660.98 511.752 661.26C512.712 661.54 513.632 661.88 514.512 662.28C515.432 662.68 516.232 663.1 516.912 663.54C517.632 663.94 518.032 664.28 518.112 664.56C516.792 666.88 515.492 670.36 514.212 675C512.932 679.6 511.872 685.12 511.032 691.56C510.832 693.16 510.652 694.98 510.492 697.02C510.372 699.06 510.312 701.34 510.312 703.86C510.312 704.74 510.312 705.64 510.312 706.56C510.312 707.48 510.352 708.44 510.432 709.44C510.352 709.48 510.272 709.5 510.192 709.5C510.112 709.5 509.952 709.5 509.712 709.5C509.152 709.5 508.492 709.4 507.732 709.2C507.012 709.04 506.292 708.82 505.572 708.54C504.892 708.3 504.292 708.02 503.772 707.7C503.292 707.38 502.992 707.1 502.872 706.86C502.832 706.34 502.812 705.82 502.812 705.3C502.812 704.82 502.812 704.3 502.812 703.74C502.812 701.26 502.892 698.74 503.052 696.18C503.252 693.62 503.572 690.98 504.012 688.26C503.452 688.22 502.712 688.18 501.792 688.14C500.872 688.06 499.832 688 498.672 687.96C497.552 687.92 496.332 687.88 495.012 687.84C493.732 687.76 492.472 687.7 491.232 687.66C490.272 689.46 489.372 691.26 488.532 693.06C487.692 694.82 486.972 696.6 486.372 698.4C485.692 700.32 485.132 702.24 484.692 704.16C484.292 706.08 484.032 707.88 483.912 709.56ZM507.072 673.5C507.232 672.94 507.412 672.18 507.612 671.22C507.852 670.22 508.072 669.18 508.272 668.1C507.272 668.46 506.152 669.12 504.912 670.08C503.712 671.04 502.452 672.24 501.132 673.68C499.852 675.08 498.532 676.68 497.172 678.48C495.852 680.24 494.572 682.12 493.332 684.12C496.692 683.84 500.512 683.66 504.792 683.58C505.112 681.9 505.452 680.24 505.812 678.6C506.212 676.92 506.632 675.22 507.072 673.5ZM558.418 664.56C558.538 665.24 558.618 665.72 558.658 666C558.738 666.24 558.778 666.58 558.778 667.02C558.778 668.34 558.478 669.58 557.878 670.74C557.318 671.86 556.538 672.66 555.538 673.14C554.738 672.06 553.758 671.14 552.598 670.38C551.438 669.58 550.158 668.94 548.758 668.46C547.398 667.94 545.978 667.56 544.498 667.32C543.018 667.08 541.578 666.96 540.178 666.96C538.778 666.96 537.458 667.08 536.218 667.32C535.018 667.52 533.938 667.82 532.978 668.22C532.058 668.58 531.318 669.04 530.758 669.6C530.238 670.16 529.978 670.8 529.978 671.52C530.098 672.4 530.638 673.3 531.598 674.22C532.558 675.1 533.738 675.98 535.138 676.86C536.538 677.7 538.078 678.54 539.758 679.38C541.478 680.22 543.158 681.02 544.798 681.78C546.838 682.74 548.598 683.64 550.078 684.48C551.558 685.28 552.778 686.18 553.738 687.18C554.698 688.14 555.418 689.24 555.898 690.48C556.378 691.72 556.618 693.22 556.618 694.98C556.618 697.02 556.278 698.94 555.598 700.74C554.918 702.5 553.918 704.04 552.598 705.36C551.318 706.68 549.758 707.7 547.918 708.42C546.078 709.18 544.018 709.56 541.738 709.56C539.498 709.56 537.078 709.22 534.478 708.54C531.878 707.86 529.438 706.92 527.158 705.72C524.918 704.56 523.038 703.22 521.518 701.7C520.038 700.14 519.298 698.5 519.298 696.78C519.298 695.98 519.518 694.96 519.958 693.72C520.438 692.48 521.278 691.18 522.478 689.82C522.598 691.02 523.238 692.44 524.398 694.08C525.598 695.72 527.378 697.24 529.738 698.64C531.938 699.92 534.198 700.86 536.518 701.46C538.878 702.02 541.078 702.3 543.118 702.3C545.358 702.3 547.178 702.02 548.578 701.46C549.978 700.9 551.078 700.24 551.878 699.48C552.678 698.68 553.238 697.88 553.558 697.08C553.878 696.28 554.058 695.64 554.098 695.16C554.058 694.36 553.678 693.6 552.958 692.88C552.278 692.12 551.338 691.4 550.138 690.72C548.978 690 547.618 689.28 546.058 688.56C544.498 687.84 542.878 687.12 541.198 686.4C538.678 685.28 536.498 684.24 534.658 683.28C532.858 682.28 531.358 681.28 530.158 680.28C528.998 679.24 528.138 678.16 527.578 677.04C527.058 675.92 526.798 674.64 526.798 673.2C526.798 670.96 527.478 668.84 528.838 666.84C530.198 664.84 532.158 663.32 534.718 662.28C535.998 661.72 537.358 661.32 538.798 661.08C540.278 660.84 541.718 660.72 543.118 660.72C545.758 660.72 548.338 661.08 550.858 661.8C553.378 662.52 555.898 663.44 558.418 664.56Z" fill="#F9A237"/>
<defs>
<linearGradient id="paint0_linear_4_62" x1="216.785" y1="545.707" x2="481.407" y2="547.547" gradientUnits="userSpaceOnUse">
<stop stop-color="#DBEDDC"/>
<stop offset="0.24" stop-color="#D8ECDC"/>
<stop offset="0.44" stop-color="#CDE9DD"/>
<stop offset="0.62" stop-color="#BCE3DE"/>
<stop offset="0.8" stop-color="#A4DCE0"/>
<stop offset="0.97" stop-color="#84D2E2"/>
<stop offset="1" stop-color="#7DD0E2"/>
</linearGradient>
<radialGradient id="paint1_radial_4_62" cx="0" cy="0" r="1" gradientUnits="userSpaceOnUse" gradientTransform="translate(352.788 544.047) scale(112.931 200.301)">
<stop stop-color="#F8EA54"/>
<stop offset="1" stop-color="#F9A237"/>
</radialGradient>
<linearGradient id="paint2_linear_4_62" x1="226.835" y1="532.694" x2="471.482" y2="532.576" gradientUnits="userSpaceOnUse">
<stop stop-color="#BADCBD"/>
<stop offset="1" stop-color="#00BEDC"/>
</linearGradient>
</defs>
</svg>
